<?xml version="1.0" encoding="utf-8"?>
<svg xml:space="preserve" viewBox="0 0 100 100" y="0" x="0" xmlns="http://www.w3.org/2000/svg" id="圖層_1" version="1.1" style="height: 100%; width: 100%; background: none; shape-rendering: auto;" width="128px" height="128px"><g class="ldl-scale" style="transform-origin: 50% 50%; transform: rotate(0deg) scale(0.8, 0.8);"><g class="ldl-ani"><g class="ldl-layer"><g class="ldl-ani" style="transform-origin: 50px 50px; transform: matrix(0.01, 0, 0, 0.01, 0, 0); animation: 1.11111s linear 0.0509259s 1 normal forwards running bounce-in-d88cf62c-0f82-4edf-a87a-a74790caed3f;"><path d="M60.27 43.674l-9.318 17.608c-.365.975-1.54.975-1.905 0L39.73 43.674C32.473 47.259 27.5 54.505 27.5 62.88v14.467c0 2.984 2.52 5.403 5.628 5.403h33.745c3.108 0 5.628-2.419 5.628-5.403V62.88c-.001-8.375-4.974-15.621-12.231-19.206z" style="fill: rgb(0, 0, 0);"></path></g></g><g class="ldl-layer"><g class="ldl-ani" style="transform-origin: 50px 50px; transform: matrix(0.01, 0, 0, 0.01, 0, 0); animation: 1.11111s linear 0.0462963s 1 normal forwards running bounce-in-d88cf62c-0f82-4edf-a87a-a74790caed3f;"><path fill="#ccc" d="M50.953 61.282l9.318-17.608c-3.081-1.522-6.567-2.397-10.27-2.397s-7.189.875-10.27 2.397l9.318 17.608c.363.975 1.539.975 1.904 0z" style="fill: rgb(204, 204, 204);"></path></g></g><g class="ldl-layer"><g class="ldl-ani" style="transform-origin: 50px 50px; transform: matrix(0.01, 0, 0, 0.01, 0, 0); animation: 1.11111s linear 0.0416667s 1 normal forwards running bounce-in-d88cf62c-0f82-4edf-a87a-a74790caed3f;"><circle fill="#c7b299" r="14.513" cy="31.763" cx="50" style="fill: rgb(199, 178, 153);"></circle></g></g><g class="ldl-layer"><g class="ldl-ani" style="transform-origin: 50px 50px; transform: matrix(0.01, 0, 0, 0.01, 0, 0); animation: 1.11111s linear 0.037037s 1 normal forwards running bounce-in-d88cf62c-0f82-4edf-a87a-a74790caed3f;"><path stroke-miterlimit="10" stroke="#754c24" fill="none" d="M40.917 30.25l.139 1.246a1.55 1.55 0 0 0 1.541 1.379h3.808c.79 0 1.453-.594 1.541-1.379l.139-1.246" style="stroke: rgb(117, 76, 36);"></path></g></g><g class="ldl-layer"><g class="ldl-ani" style="transform-origin: 50px 50px; transform: matrix(0.01, 0, 0, 0.01, 0, 0); animation: 1.11111s linear 0.0324074s 1 normal forwards running bounce-in-d88cf62c-0f82-4edf-a87a-a74790caed3f;"><path stroke-miterlimit="10" stroke="#754c24" fill="none" d="M48.083 30.25l.1-.904a1.55 1.55 0 0 0-1.541-1.721h-4.286a1.55 1.55 0 0 0-1.541 1.721l.1.904" style="stroke: rgb(117, 76, 36);"></path></g></g><g class="ldl-layer"><g class="ldl-ani" style="transform-origin: 50px 50px; transform: matrix(0.01, 0, 0, 0.01, 0, 0); animation: 1.11111s linear 0.0277778s 1 normal forwards running bounce-in-d88cf62c-0f82-4edf-a87a-a74790caed3f;"><path stroke-miterlimit="10" stroke="#754c24" fill="none" d="M59.083 30.25l.1-.904a1.55 1.55 0 0 0-1.541-1.721h-4.286a1.55 1.55 0 0 0-1.541 1.721l.1.904" style="stroke: rgb(117, 76, 36);"></path></g></g><g class="ldl-layer"><g class="ldl-ani" style="transform-origin: 50px 50px; transform: matrix(0.01, 0, 0, 0.01, 0, 0); animation: 1.11111s linear 0.0231481s 1 normal forwards running bounce-in-d88cf62c-0f82-4edf-a87a-a74790caed3f;"><path stroke-miterlimit="10" stroke="#754c24" fill="none" d="M51.917 30.25l.139 1.246a1.55 1.55 0 0 0 1.541 1.379h3.808c.79 0 1.453-.594 1.541-1.379l.139-1.246" style="stroke: rgb(117, 76, 36);"></path></g></g><g class="ldl-layer"><g class="ldl-ani" style="transform-origin: 50px 50px; transform: matrix(0.01, 0, 0, 0.01, 0, 0); animation: 1.11111s linear 0.0185185s 1 normal forwards running bounce-in-d88cf62c-0f82-4edf-a87a-a74790caed3f;"><path d="M63 30.25h-3.917" stroke-miterlimit="10" stroke="#754c24" fill="none" style="stroke: rgb(117, 76, 36);"></path></g></g><g class="ldl-layer"><g class="ldl-ani" style="transform-origin: 50px 50px; transform: matrix(0.01, 0, 0, 0.01, 0, 0); animation: 1.11111s linear 0.0138889s 1 normal forwards running bounce-in-d88cf62c-0f82-4edf-a87a-a74790caed3f;"><path d="M40.917 30.25h-3.542" stroke-miterlimit="10" stroke="#754c24" fill="none" style="stroke: rgb(117, 76, 36);"></path></g></g><g class="ldl-layer"><g class="ldl-ani" style="transform-origin: 50px 50px; transform: matrix(0.01, 0, 0, 0.01, 0, 0); animation: 1.11111s linear 0.00925926s 1 normal forwards running bounce-in-d88cf62c-0f82-4edf-a87a-a74790caed3f;"><path d="M51.917 30.25h-3.834" stroke-miterlimit="10" stroke="#754c24" fill="none" style="stroke: rgb(117, 76, 36);"></path></g></g><g class="ldl-layer"><g class="ldl-ani" style="transform-origin: 50px 50px; transform: matrix(0.01, 0, 0, 0.01, 0, 0); animation: 1.11111s linear 0.00462963s 1 normal forwards running bounce-in-d88cf62c-0f82-4edf-a87a-a74790caed3f;"><path fill="#c7b299" d="M54.524 77.102l-10.038-4.226a1.994 1.994 0 0 1-1.064-2.61l5.709-13.561a1.994 1.994 0 0 1 2.61-1.064l10.038 4.226a1.994 1.994 0 0 1 1.064 2.61l-5.709 13.561a1.992 1.992 0 0 1-2.61 1.064z" style="fill: rgb(199, 178, 153);"></path></g></g><g class="ldl-layer"><g class="ldl-ani"><g><g class="ldl-layer"><g class="ldl-ani" style="transform-origin: 50px 50px; transform: matrix(0.01, 0, 0, 0.01, 0, 0); animation: 1.11111s linear 0s 1 normal forwards running bounce-in-d88cf62c-0f82-4edf-a87a-a74790caed3f;"><path fill="#754c24" d="M36.656 70.684L63 58 38.094 73.316a1.5 1.5 0 1 1-1.438-2.632z" style="fill: rgb(117, 76, 36);"></path></g></g></g></g></g><metadata xmlns:d="https://loading.io/stock/"><d:name>teacher</d:name><d:tags>professor,trainer,instructor,speaker,lecturer,teacher,people</d:tags><d:license>pro</d:license><d:slug>ss544w</d:slug></metadata></g></g><style id="bounce-in-d88cf62c-0f82-4edf-a87a-a74790caed3f" data-anikit="">@keyframes bounce-in-d88cf62c-0f82-4edf-a87a-a74790caed3f
{
  0% {
    animation-timing-function: cubic-bezier(0.3333,0.3333,0.1757,0.6667);
    transform: matrix(0.01,0,0,0.01,0,0);
    opacity: 1;
  }
  0.2% {
    animation-timing-function: cubic-bezier(0.0011,0.1955,0.4537,1);
    transform: matrix(0.829,0,0,0.829,0,0);
    opacity: 1;
  }
  9.9% {
    animation-timing-function: cubic-bezier(0.4253,0,0.551,1);
    transform: matrix(1.022,0,0,1.022,0,0);
    opacity: 1;
  }
  19.6% {
    animation-timing-function: cubic-bezier(0.4027,0,0.5791,1);
    transform: matrix(0.952,0,0,0.952,0,0);
    opacity: 1;
  }
  30% {
    animation-timing-function: cubic-bezier(0.3752,0,0.6156,1);
    transform: matrix(1.012,0,0,1.012,0,0);
    opacity: 1;
  }
  39.7% {
    animation-timing-function: cubic-bezier(0.3618,0,0.6305,1);
    transform: matrix(0.973,0,0,0.973,0,0);
    opacity: 1;
  }
  50% {
    animation-timing-function: cubic-bezier(0.3454,0,0.6465,1);
    transform: matrix(1.007,0,0,1.007,0,0);
    opacity: 1;
  }
  59.6% {
    animation-timing-function: cubic-bezier(0.345,0,0.6549,1);
    transform: matrix(0.985,0,0,0.985,0,0);
    opacity: 1;
  }
  69.9% {
    animation-timing-function: cubic-bezier(0.3406,0,0.6579,1);
    transform: matrix(1.004,0,0,1.004,0,0);
    opacity: 1;
  }
  79.3% {
    animation-timing-function: cubic-bezier(0.3378,0,0.6608,1);
    transform: matrix(0.993,0,0,0.993,0,0);
    opacity: 1;
  }
  89.6% {
    animation-timing-function: cubic-bezier(0.3389,0,0.6642,1);
    transform: matrix(1.001,0,0,1.001,0,0);
    opacity: 1;
  }
  100% {
    transform: matrix(1,0,0,1,0,0);
    opacity: 1;
  }
}</style><!-- [ldio] generated by https://loading.io/ --></svg>