<?xml version="1.0" encoding="utf-8"?>
<svg xmlns="http://www.w3.org/2000/svg" xmlns:xlink="http://www.w3.org/1999/xlink" style="margin: auto; background: rgb(251, 255, 255); display: block; z-index: 1; position: relative; shape-rendering: auto;" width="1440" height="793" preserveAspectRatio="xMidYMid" viewBox="0 0 1440 793">
<g transform=""><path d="M -100 546.773 C -24.8967 539.663 -23.2111 548.048 49.09 548.048 S 126.068 544.569 198.18 544.569 S 274.906 545.99 347.27 545.99 S 422.384 536.154 496.36 536.154 S 572.174 534.24 645.45 534.24 S 721.119 534.446 794.55 534.446 S 869.512 551.462 943.64 551.462 S 1019.15 530.733 1092.73 530.733 S 1168.71 532.466 1241.82 532.466 S 1318.1 531.232 1390.91 531.232 S 1466.44 540.02 1540 540.02 S 1616.18 547.023 1689.09 547.023 L 1540 793 L -100 793 Z" fill="#fbffff" stroke-width="0" transform="translate(5.7907 0)">
  <animate attributeName="d" dur="7.5s" repeatCount="indefinite" values="M-100 546.74C-24.88 537.83 -23.5 552.02 49.09 552.02S125.79 538.03 198.18 538.03S275.1 547.04 347.27 547.04S421.84 547.02 496.36 547.02S573.73 542.24 645.45 542.24S721.43 538.59 794.55 538.59S869.19 552.29 943.64 552.29S1019.22 531.55 1092.73 531.55S1170.1 527.3 1241.82 527.3S1318.16 533.46 1390.91 533.46S1467.52 531.72 1540 531.72S1616.17 547.54 1689.09 547.54L1540 793 L-100 793 Z;M-100 546.8C-24.91 541.13 -22.98 544.87 49.09 544.87S126.29 549.8 198.18 549.8S274.75 545.15 347.27 545.15S422.82 527.46 496.36 527.46S570.93 527.84 645.45 527.84S720.87 531.13 794.55 531.13S869.77 550.8 943.64 550.8S1019.1 530.08 1092.73 530.08S1167.6 536.6 1241.82 536.6S1318.05 529.45 1390.91 529.45S1465.57 546.66 1540 546.66S1616.18 546.61 1689.09 546.61L1540 793 L-100 793 Z;M-100 546.74C-24.88 537.83 -23.5 552.02 49.09 552.02S125.79 538.03 198.18 538.03S275.1 547.04 347.27 547.04S421.84 547.02 496.36 547.02S573.73 542.24 645.45 542.24S721.43 538.59 794.55 538.59S869.19 552.29 943.64 552.29S1019.22 531.55 1092.73 531.55S1170.1 527.3 1241.82 527.3S1318.16 533.46 1390.91 533.46S1467.52 531.72 1540 531.72S1616.17 547.54 1689.09 547.54L1540 793 L-100 793 Z"></animate>
  <animateTransform attributeName="transform" type="translate" dur="7.5s" begin="0s" repeatCount="indefinite" values="0;10;0" calcMode="spline" keySplines="0.3 0 0.7 1;0.3 0 0.7 1"></animateTransform>
</path><path d="M -100 599.433 C -16.1684 604.561 -17.7933 603.8 64 603.8 S 148.072 606.433 228 606.433 S 311.195 606.424 392 606.424 S 474.52 610.077 556 610.077 S 638.67 612.531 720 612.531 S 803.273 604.604 884 604.604 S 967.75 613.482 1048 613.482 S 1131.1 601.104 1212 601.104 S 1296.11 608.874 1376 608.874 S 1458.78 601.784 1540 601.784 S 1623.3 599.001 1704 599.001 L 1540 793 L -100 793 Z" fill="#a7b5b5" stroke-width="0" transform="translate(9.17957 0)">
  <animate attributeName="d" dur="5s" repeatCount="indefinite" values="M-100 595.87C-15.93 606.48 -17.96 603.78 64 603.78S148.35 607.88 228 607.88S311.03 608.71 392 608.71S474.36 608.95 556 608.95S638.64 613.93 720 613.93S803.42 607.61 884 607.61S967.84 613.12 1048 613.12S1131.25 599.65 1212 599.65S1296.34 612.51 1376 612.51S1458.73 599.54 1540 599.54S1623.26 595.83 1704 595.83L1540 793 L-100 793 Z;M-100 617.24C-17.36 594.97 -16.96 603.9 64 603.9S146.68 599.2 228 599.2S312.02 595 392 595S475.32 615.71 556 615.71S638.82 605.54 720 605.54S802.54 589.58 884 589.58S967.3 615.29 1048 615.29S1130.34 608.37 1212 608.37S1294.95 590.7 1376 590.7S1459.05 613 1540 613S1623.5 614.85 1704 614.85L1540 793 L-100 793 Z;M-100 595.87C-15.93 606.48 -17.96 603.78 64 603.78S148.35 607.88 228 607.88S311.03 608.71 392 608.71S474.36 608.95 556 608.95S638.64 613.93 720 613.93S803.42 607.61 884 607.61S967.84 613.12 1048 613.12S1131.25 599.65 1212 599.65S1296.34 612.51 1376 612.51S1458.73 599.54 1540 599.54S1623.26 595.83 1704 595.83L1540 793 L-100 793 Z"></animate>
  <animateTransform attributeName="transform" type="translate" dur="5s" begin="-1.6666666666666667s" repeatCount="indefinite" values="0;10;0" calcMode="spline" keySplines="0.3 0 0.7 1;0.3 0 0.7 1"></animateTransform>
</path><path d="M -100 673.285 C -6.72678 675.583 -7.80013 669.889 82.22 669.889 S 174.54 663.731 264.44 663.731 S 357.1 664.334 446.67 664.334 S 538.083 665.58 628.89 665.58 S 721.123 683.67 811.11 683.67 S 903.827 678.08 993.33 678.08 S 1086.47 673.365 1175.56 673.365 S 1268.12 680.887 1357.78 680.887 S 1449.5 661.889 1540 661.889 S 1633.2 670.142 1722.22 670.142 L 1540 793 L -100 793 Z" fill="#597072" stroke-width="0" transform="translate(2.68749 0)">
  <animate attributeName="d" dur="2.5s" repeatCount="indefinite" values="M-100 679.75C-6.31 675.73 -7.32 672.01 82.22 672.01S174.86 659.16 264.44 659.16S357.72 662.33 446.67 662.33S538.1 665.72 628.89 665.72S720.81 684.39 811.11 684.39S903.4 679.35 993.33 679.35S1086.27 679.8 1175.56 679.8S1268.5 680.53 1357.78 680.53S1449.14 664.04 1540 664.04S1633.85 677.15 1722.22 677.15L1540 793 L-100 793 Z;M-100 660.36C-7.56 675.29 -8.76 665.65 82.22 665.65S173.9 672.87 264.44 672.87S355.86 668.34 446.67 668.34S538.05 665.3 628.89 665.3S721.75 682.23 811.11 682.23S904.68 675.54 993.33 675.54S1086.88 660.5 1175.56 660.5S1267.37 681.6 1357.78 681.6S1450.21 657.59 1540 657.59S1631.89 656.13 1722.22 656.13L1540 793 L-100 793 Z;M-100 679.75C-6.31 675.73 -7.32 672.01 82.22 672.01S174.86 659.16 264.44 659.16S357.72 662.33 446.67 662.33S538.1 665.72 628.89 665.72S720.81 684.39 811.11 684.39S903.4 679.35 993.33 679.35S1086.27 679.8 1175.56 679.8S1268.5 680.53 1357.78 680.53S1449.14 664.04 1540 664.04S1633.85 677.15 1722.22 677.15L1540 793 L-100 793 Z"></animate>
  <animateTransform attributeName="transform" type="translate" dur="2.5s" begin="-1.6666666666666667s" repeatCount="indefinite" values="0;10;0" calcMode="spline" keySplines="0.3 0 0.7 1;0.3 0 0.7 1"></animateTransform>
</path></g>
</svg>